<svg width="740" height="155" viewBox="0 0 740 155" fill="none" xmlns="http://www.w3.org/2000/svg">
<g clip-path="url(#clip0_18199_581232)">
<mask id="mask0_18199_581232" style="mask-type:alpha" maskUnits="userSpaceOnUse" x="0" y="0" width="740" height="220">
<rect width="740" height="220" fill="white"/>
</mask>
<g mask="url(#mask0_18199_581232)">
<path fill-rule="evenodd" clip-rule="evenodd" d="M103.317 49.4665C103.317 48.3418 102.405 47.4307 101.281 47.4307C100.157 47.4307 99.2451 48.3418 99.2451 49.4665C99.2451 50.5916 100.157 51.5027 101.281 51.5027C102.405 51.5027 103.317 50.5916 103.317 49.4665Z" fill="#FFABD6"/>
<path fill-rule="evenodd" clip-rule="evenodd" d="M196.993 16.4297C196.314 16.6264 195.595 16.2626 195.397 15.6223C195.2 14.9811 195.595 14.2958 196.275 14.0987L207.544 10.8359C208.224 10.6388 208.942 11.0018 209.14 11.6425C209.338 12.2832 208.943 12.9689 208.263 13.1665L196.993 16.4297Z" fill="#F4B827"/>
<path fill-rule="evenodd" clip-rule="evenodd" d="M4.79794 86.5132C5.08631 85.8387 5.84299 85.5256 6.47614 85.8171C7.11019 86.1081 7.39189 86.8985 7.10219 87.573L2.3053 98.7476C2.01561 99.4226 1.26026 99.7357 0.626659 99.4437C-0.00694324 99.1536 -0.289531 98.3623 0.000610247 97.6878L4.79794 86.5132Z" fill="#F4B827"/>
<path fill-rule="evenodd" clip-rule="evenodd" d="M115.533 16.0756C115.533 14.9511 114.622 14.0396 113.498 14.0396C112.372 14.0396 111.461 14.9511 111.461 16.0756C111.461 17.2001 112.372 18.1116 113.498 18.1116C114.622 18.1116 115.533 17.2001 115.533 16.0756Z" fill="#F4B827"/>
<path fill-rule="evenodd" clip-rule="evenodd" d="M31.6486 55.1674C31.6486 54.0424 30.7366 53.1313 29.6124 53.1313C28.4877 53.1313 27.5765 54.0424 27.5765 55.1674C27.5765 56.2919 28.4877 57.2034 29.6124 57.2034C30.7366 57.2034 31.6486 56.2919 31.6486 55.1674Z" fill="#8FD2E8"/>
<path fill-rule="evenodd" clip-rule="evenodd" d="M296.334 6.30243C296.334 5.17779 295.422 4.2666 294.297 4.2666C293.173 4.2666 292.261 5.17779 292.261 6.30243C292.261 7.42707 293.173 8.33868 294.297 8.33868C295.422 8.33868 296.334 7.42707 296.334 6.30243Z" fill="#9BD6CF"/>
<path fill-rule="evenodd" clip-rule="evenodd" d="M267.829 32.3644C267.829 31.2393 266.917 30.3281 265.792 30.3281C264.668 30.3281 263.757 31.2393 263.757 32.3644C263.757 33.489 264.668 34.4002 265.792 34.4002C266.917 34.4002 267.829 33.489 267.829 32.3644Z" fill="#8CE2FF"/>
<path fill-rule="evenodd" clip-rule="evenodd" d="M242.048 27.0574C241.727 27.1017 241.389 27.0343 241.102 26.8448C240.5 26.4481 240.352 25.664 240.771 25.093C240.778 25.0819 241.921 23.4618 241.445 22.0179C241.154 21.1371 240.266 20.4205 238.805 19.8889C236.4 19.0134 234.97 17.7035 234.557 15.9943C233.88 13.1952 236.295 10.6473 236.573 10.3655C237.074 9.85879 237.913 9.83261 238.448 10.3078C238.981 10.7822 239.01 11.5778 238.511 12.085C238.024 12.5855 236.83 14.1612 237.144 15.4365C237.35 16.2751 238.228 16.9824 239.754 17.538C242.02 18.3624 243.444 19.6244 243.984 21.288C244.834 23.9109 243.026 26.4237 242.949 26.5298C242.73 26.8284 242.4 27.0099 242.048 27.0574Z" fill="#FFABD6"/>
<path fill-rule="evenodd" clip-rule="evenodd" d="M145.007 27.8947C144.859 27.6226 144.81 27.2964 144.892 26.9724C145.062 26.2941 145.743 25.8844 146.413 26.0564C146.426 26.0596 148.314 26.5109 149.501 25.5747C150.225 25.0028 150.598 23.9545 150.609 22.4589C150.628 19.9969 151.375 18.2547 152.83 17.2814C155.213 15.6862 158.386 16.9486 158.74 17.0978C159.379 17.3681 159.681 18.1094 159.415 18.756C159.15 19.4012 158.418 19.7078 157.781 19.4406C157.153 19.181 155.291 18.6684 154.207 19.4003C153.494 19.8807 153.126 20.9165 153.113 22.4786C153.096 24.799 152.392 26.5189 151.021 27.59C148.86 29.2772 145.921 28.5466 145.797 28.5145C145.446 28.4242 145.167 28.1919 145.007 27.8947Z" fill="#FFABD6"/>
<path fill-rule="evenodd" clip-rule="evenodd" d="M-4.87107 61.1226C-5.00826 60.8337 -5.04221 60.4949 -4.9426 60.1644C-4.73433 59.4719 -4.01579 59.0837 -3.33755 59.2963C-3.32442 59.3 -1.41285 59.8639 -0.149632 58.9575C0.620975 58.4037 1.05563 57.3401 1.14166 55.7954C1.28382 53.2531 2.13638 51.4916 3.67578 50.5607C6.19678 49.0348 9.38515 50.5033 9.74103 50.6758C10.3812 50.9878 10.6538 51.7698 10.3491 52.4234C10.0453 53.0775 9.28102 53.3553 8.64081 53.0465C8.01056 52.7456 6.12705 52.1207 4.98065 52.8205C4.22589 53.2804 3.79712 54.332 3.70702 55.9447C3.57346 58.3413 2.76618 60.0825 1.30827 61.1175C-0.991322 62.7501 -3.9669 61.8432 -4.09231 61.8039C-4.44683 61.6925 -4.7203 61.4387 -4.87107 61.1226Z" fill="#FFABD6"/>
<path fill-rule="evenodd" clip-rule="evenodd" d="M64.7609 66.1486C64.4448 66.1027 64.1462 65.9443 63.9318 65.6806C63.4823 65.1302 63.5747 64.3274 64.1384 63.8872C64.1489 63.8782 65.7078 62.6195 65.6871 61.084C65.6737 60.1475 65.0484 59.2073 63.8278 58.2879C61.8199 56.7754 60.8611 55.1093 60.977 53.334C61.168 50.4263 64.2023 48.6158 64.5479 48.4183C65.1717 48.0645 65.9709 48.2698 66.3326 48.8791C66.6965 49.4866 66.4867 50.2684 65.866 50.6234C65.2582 50.9758 63.6645 52.1792 63.5826 53.5041C63.5278 54.3758 64.1466 55.3047 65.4211 56.2646C67.3144 57.6898 68.2825 59.3091 68.2972 61.0741C68.3225 63.858 65.8716 65.8021 65.7667 65.8836C65.4722 66.1131 65.1073 66.1981 64.7609 66.1486Z" fill="#F4B827"/>
<path fill-rule="evenodd" clip-rule="evenodd" d="M40.81 10.0888C41.103 9.9562 41.4464 9.92654 41.7782 10.0299C42.4744 10.2457 42.8561 10.9643 42.6321 11.6345C42.6279 11.648 42.032 13.5379 42.9298 14.8036C43.4776 15.5753 44.5452 16.0212 46.1037 16.1268C48.6677 16.3012 50.4339 17.1704 51.3521 18.7107C52.857 21.2335 51.3302 24.3788 51.1515 24.7298C50.8272 25.3609 50.0344 25.6216 49.3784 25.3101C48.7232 25.0004 48.4531 24.2381 48.7736 23.6062C49.0858 22.9851 49.7428 21.1238 49.0531 19.9759C48.5987 19.2209 47.5441 18.7813 45.917 18.6712C43.4995 18.5067 41.7539 17.6824 40.7288 16.2221C39.1134 13.9182 40.0704 10.9765 40.1119 10.8524C40.229 10.5018 40.4894 10.234 40.81 10.0888Z" fill="#76CAE7"/>
<path fill-rule="evenodd" clip-rule="evenodd" d="M129.378 60.0543C129.378 58.9293 128.466 58.0181 127.343 58.0181C126.218 58.0181 125.306 58.9293 125.306 60.0543C125.306 61.179 126.218 62.0901 127.343 62.0901C128.466 62.0901 129.378 61.179 129.378 60.0543Z" fill="#76CAE7"/>
<path fill-rule="evenodd" clip-rule="evenodd" d="M217.335 37.2506C217.335 36.126 216.424 35.2144 215.299 35.2144C214.175 35.2144 213.263 36.126 213.263 37.2506C213.263 38.3752 214.175 39.2864 215.299 39.2864C216.424 39.2864 217.335 38.3752 217.335 37.2506Z" fill="#FFABD6"/>
<path fill-rule="evenodd" clip-rule="evenodd" d="M1.53003 15.5704C1.42759 14.8468 1.86902 14.1638 2.51078 14.0547C3.15336 13.9446 3.76263 14.4473 3.86591 15.1714L5.57253 27.1682C5.67497 27.8922 5.23478 28.5743 4.5922 28.6839C3.95045 28.7939 3.34035 28.2913 3.23707 27.5672L1.53003 15.5704Z" fill="#8FD2E8"/>
<path fill-rule="evenodd" clip-rule="evenodd" d="M82.1571 21.2716C82.0547 20.548 82.4961 19.865 83.1379 19.7558C83.7804 19.6458 84.3897 20.1485 84.493 20.8726L86.1996 32.8693C86.302 33.593 85.8619 34.2755 85.2193 34.3851C84.5775 34.4951 83.9674 33.9924 83.8641 33.2684L82.1571 21.2716Z" fill="#8FD2E8"/>
<path fill-rule="evenodd" clip-rule="evenodd" d="M280.045 31.6793C280.047 31.3703 280.163 31.0631 280.396 30.8216C280.881 30.3147 281.694 30.2907 282.212 30.7675C282.222 30.7759 283.695 32.0881 285.222 31.8533C286.153 31.7099 287.003 30.9806 287.749 29.6857C288.975 27.5567 290.501 26.4074 292.287 26.2694C295.211 26.0448 297.44 28.6882 297.684 28.9901C298.125 29.537 298.032 30.3289 297.475 30.7595C296.92 31.1923 296.113 31.1017 295.672 30.5584C295.236 30.0275 293.813 28.674 292.482 28.7814C291.605 28.8511 290.766 29.5725 289.989 30.9233C288.833 32.9324 287.354 34.0835 285.596 34.3454C282.826 34.7591 280.546 32.6905 280.451 32.6026C280.18 32.3531 280.044 32.0166 280.045 31.6793Z" fill="#F4B827"/>
<path fill-rule="evenodd" clip-rule="evenodd" d="M665.031 16.4297C664.351 16.6264 663.633 16.2626 663.434 15.6223C663.237 14.9811 663.633 14.2958 664.312 14.0987L675.582 10.8359C676.262 10.6388 676.98 11.0018 677.178 11.6425C677.375 12.2832 676.98 12.9689 676.301 13.1665L665.031 16.4297Z" fill="#F4B827"/>
<path fill-rule="evenodd" clip-rule="evenodd" d="M583.571 16.0756C583.571 14.9511 582.659 14.0396 581.535 14.0396C580.41 14.0396 579.499 14.9511 579.499 16.0756C579.499 17.2001 580.41 18.1116 581.535 18.1116C582.659 18.1116 583.571 17.2001 583.571 16.0756Z" fill="#F4B827"/>
<path fill-rule="evenodd" clip-rule="evenodd" d="M735.867 32.3644C735.867 31.2393 734.954 30.3281 733.83 30.3281C732.706 30.3281 731.795 31.2393 731.795 32.3644C731.795 33.489 732.706 34.4002 733.83 34.4002C734.954 34.4002 735.867 33.489 735.867 32.3644Z" fill="#8CE2FF"/>
<path fill-rule="evenodd" clip-rule="evenodd" d="M710.086 27.0574C709.764 27.1017 709.427 27.0343 709.14 26.8448C708.538 26.4481 708.39 25.664 708.808 25.093C708.816 25.0819 709.959 23.4618 709.483 22.0179C709.191 21.1371 708.303 20.4205 706.842 19.8889C704.437 19.0134 703.008 17.7035 702.595 15.9943C701.917 13.1952 704.333 10.6473 704.611 10.3655C705.112 9.85879 705.951 9.83261 706.485 10.3078C707.019 10.7822 707.048 11.5778 706.549 12.085C706.062 12.5855 704.868 14.1612 705.182 15.4365C705.388 16.2751 706.266 16.9824 707.791 17.538C710.058 18.3624 711.482 19.6244 712.022 21.288C712.872 23.9109 711.064 26.4237 710.986 26.5298C710.768 26.8284 710.437 27.0099 710.086 27.0574Z" fill="#FFABD6"/>
<path fill-rule="evenodd" clip-rule="evenodd" d="M613.044 27.8947C612.897 27.6226 612.848 27.2964 612.929 26.9724C613.1 26.2941 613.781 25.8844 614.451 26.0564C614.464 26.0596 616.352 26.5109 617.538 25.5747C618.263 25.0028 618.636 23.9545 618.647 22.4589C618.666 19.9969 619.413 18.2547 620.868 17.2814C623.251 15.6862 626.424 16.9486 626.778 17.0978C627.416 17.3681 627.719 18.1094 627.453 18.756C627.188 19.4012 626.456 19.7078 625.819 19.4406C625.191 19.181 623.328 18.6684 622.244 19.4003C621.532 19.8807 621.164 20.9165 621.151 22.4786C621.134 24.799 620.43 26.5189 619.059 27.59C616.898 29.2772 613.958 28.5466 613.834 28.5145C613.484 28.4242 613.205 28.1919 613.044 27.8947Z" fill="#FFABD6"/>
<path fill-rule="evenodd" clip-rule="evenodd" d="M508.848 10.0888C509.141 9.9562 509.484 9.92654 509.816 10.0299C510.512 10.2457 510.894 10.9643 510.67 11.6345C510.665 11.648 510.07 13.5379 510.967 14.8036C511.515 15.5753 512.583 16.0212 514.141 16.1268C516.705 16.3012 518.471 17.1704 519.39 18.7107C520.895 21.2335 519.368 24.3788 519.189 24.7298C518.865 25.3609 518.072 25.6216 517.416 25.3101C516.761 25.0004 516.491 24.2381 516.811 23.6062C517.123 22.9851 517.78 21.1238 517.091 19.9759C516.636 19.2209 515.582 18.7813 513.955 18.6712C511.537 18.5067 509.792 17.6824 508.766 16.2221C507.151 13.9182 508.108 10.9765 508.15 10.8524C508.267 10.5018 508.527 10.234 508.848 10.0888Z" fill="#76CAE7"/>
<path fill-rule="evenodd" clip-rule="evenodd" d="M662.569 63.3117C662.569 62.1866 661.657 61.2759 660.533 61.2759C659.408 61.2759 658.497 62.1866 658.497 63.3117C658.497 64.4364 659.408 65.348 660.533 65.348C661.657 65.348 662.569 64.4364 662.569 63.3117Z" fill="#F4B827"/>
<path fill-rule="evenodd" clip-rule="evenodd" d="M685.373 37.2506C685.373 36.126 684.461 35.2144 683.337 35.2144C682.212 35.2144 681.301 36.126 681.301 37.2506C681.301 38.3752 682.212 39.2864 683.337 39.2864C684.461 39.2864 685.373 38.3752 685.373 37.2506Z" fill="#FFABD6"/>
<path fill-rule="evenodd" clip-rule="evenodd" d="M550.195 21.2716C550.092 20.548 550.534 19.865 551.176 19.7558C551.818 19.6458 552.427 20.1485 552.531 20.8726L554.237 32.8693C554.34 33.593 553.9 34.2755 553.257 34.3851C552.615 34.4951 552.005 33.9924 551.902 33.2684L550.195 21.2716Z" fill="#8FD2E8"/>
<path fill-rule="evenodd" clip-rule="evenodd" d="M704.526 54.4949C703.996 54.0084 703.961 53.2003 704.448 52.7014C704.935 52.1999 705.766 52.1884 706.297 52.6741L715.084 60.7273C715.614 61.2134 715.65 62.0207 715.163 62.5213C714.677 63.022 713.844 63.0339 713.314 62.5482L704.526 54.4949Z" fill="#8CE2FF"/>
</g>
</g>
<defs>
<clipPath id="clip0_18199_581232">
<rect width="740" height="155" fill="white"/>
</clipPath>
</defs>
</svg>
