<svg width="150" height="150" viewBox="0 0 150 150" fill="none" xmlns="http://www.w3.org/2000/svg">
<path d="M75.0461 134.925C89.4746 134.925 101.171 134.038 101.171 132.943C101.171 131.849 89.4746 130.961 75.0461 130.961C60.6175 130.961 48.9209 131.849 48.9209 132.943C48.9209 134.038 60.6175 134.925 75.0461 134.925Z" fill="#BBF2FF"/>
<path d="M33.7345 77.7789L40.9091 69.6348L48.3746 89.8981C48.9563 91.5464 47.405 93.1946 45.6598 92.6128L25.3965 85.1474L33.7345 77.7789Z" fill="#FFB700"/>
<path d="M36.0503 80.1525C40.4045 75.7983 42.3075 70.6418 40.3008 68.6351C38.2941 66.6284 33.1375 68.5314 28.7834 72.8856C24.4292 77.2398 22.5262 82.3963 24.5329 84.403C26.5396 86.4097 31.6961 84.5067 36.0503 80.1525Z" fill="#3F50E3"/>
<path d="M14.9308 62.7474L17.2617 60.4165L14.9308 58.0856L12.5999 60.4165L14.9308 62.7474Z" fill="#D764DA"/>
<path d="M36.0503 80.1525C40.4045 75.7983 42.3075 70.6418 40.3008 68.6351C38.2941 66.6284 33.1375 68.5314 28.7834 72.8856C24.4292 77.2398 22.5262 82.3963 24.5329 84.403C26.5396 86.4097 31.6961 84.5067 36.0503 80.1525Z" fill="#3F50E3"/>
<path d="M35.8676 77.4879C35.6737 76.9062 35.5768 76.2275 35.5768 75.4519C35.5768 74.9671 35.6737 74.4823 35.7707 74.0945C35.9646 73.4158 36.1585 72.7372 36.2554 72.0585C36.3524 71.3798 36.4493 70.7981 36.4493 70.1194C36.4493 69.2468 36.2554 68.4712 35.8676 67.5017C35.3828 66.5321 34.7042 65.4656 33.4438 64.2052C32.4742 63.2357 31.6986 62.1692 31.2138 61.1027C30.7291 60.0362 30.5352 58.9697 30.5352 58.0002C30.5352 56.5459 30.923 55.1885 31.6016 54.219C31.8925 53.7342 32.2803 53.2494 32.5712 52.8616C32.959 52.4738 33.3468 52.183 33.7346 51.8921L34.8011 53.6373C34.6072 53.7342 34.3164 53.9281 34.1224 54.219C33.7346 54.6068 33.3468 55.1885 33.056 55.8672C32.7651 56.5459 32.5712 57.2246 32.5712 58.0971C32.5712 58.7758 32.6681 59.5514 33.056 60.3271C33.4438 61.1027 33.9285 61.9753 34.8011 62.8479C36.1585 64.2052 37.0311 65.4656 37.6128 66.726C38.1945 67.9864 38.3884 69.1499 38.3884 70.2164C38.3884 71.089 38.2915 71.8646 38.0975 72.6402C37.9036 73.4158 37.7097 74.0945 37.6128 74.6762C37.5158 74.9671 37.5158 75.258 37.5158 75.6458C37.5158 76.1306 37.6128 76.6153 37.7097 77.1001C37.8067 77.391 37.9036 77.5849 38.0006 77.8757C37.6128 78.4574 37.128 79.0392 36.5463 79.6209C36.4493 79.5239 36.4493 79.427 36.3524 79.33C36.3524 78.6514 36.0615 78.0696 35.8676 77.4879Z" fill="#FFD530"/>
<path d="M10.1751 71.2829C11.0477 70.8951 12.1142 70.7012 13.1807 70.7012C14.3441 70.7012 15.6045 70.992 16.8649 71.6707C18.1253 72.3494 19.2888 73.4159 20.2583 74.9671C20.937 75.9367 21.5187 76.7123 22.1974 77.294C23.07 78.1666 23.9426 78.6514 24.8152 78.9422C25.6877 79.2331 26.4634 79.3301 27.336 79.3301C28.0146 79.3301 28.7903 79.2331 29.5659 79.2331C29.6629 79.2331 29.6629 79.2331 29.7598 79.2331C30.6324 79.2331 31.505 79.427 32.1837 79.7179C32.4745 79.8148 32.6684 79.9118 32.9593 80.1057C33.541 80.6874 34.2197 81.1722 34.7045 81.56C34.2197 81.9478 33.638 82.4326 33.1532 82.7234C32.9593 82.6265 32.8623 82.4326 32.6684 82.3356C32.2806 82.0448 31.8928 81.8509 31.408 81.657C30.9233 81.4631 30.4385 81.3661 29.8568 81.3661H29.7598C29.0811 81.3661 28.3055 81.4631 27.5299 81.4631C26.8512 81.4631 26.1725 81.463 25.4938 81.2691C24.4273 81.0752 23.2639 80.5905 22.1005 79.8148C20.937 79.0392 19.8705 77.8758 18.804 76.2275C17.9314 74.9671 17.0589 74.0946 16.1863 73.6098C15.3137 73.125 14.3441 72.9311 13.4716 72.9311C12.6959 72.9311 11.9203 73.125 11.2416 73.4159C10.5629 73.7067 10.0782 73.9976 9.88427 74.2885L8.33301 72.9311C8.62387 72.1555 9.30255 71.6707 10.1751 71.2829Z" fill="#D764DA"/>
<path d="M23.1086 53.7997C23.4965 52.9271 23.9812 52.1515 24.5629 51.6667L25.9203 53.218C25.6294 53.5089 25.2416 53.9936 24.9508 54.6723C24.6599 55.351 24.466 56.1266 24.466 56.9023C24.466 57.7748 24.6599 58.6474 25.1447 59.52C25.6294 60.3926 26.4051 61.3621 27.6655 62.1378C28.732 62.8164 29.6045 63.5921 30.2832 64.3677C31.3497 65.4342 31.9314 66.5976 32.3193 67.7611C32.7071 68.8276 32.804 69.8941 32.804 70.8636C32.804 71.7362 32.7071 72.5118 32.7071 73.1905C32.7071 73.2875 32.7071 73.2875 32.7071 73.2875C32.7071 74.257 32.9979 75.1296 33.3857 75.9052C33.9675 77.0687 34.8401 78.0382 35.6157 78.6199C36.0035 78.9108 36.3913 79.2017 36.5852 79.2986C36.5852 79.2986 36.5852 79.2986 36.6822 79.2986C36.6822 79.2986 36.6822 79.2986 36.5852 79.3956C36.1005 79.8803 35.6157 80.2681 35.2279 80.656L35.1309 80.7529C34.6461 80.4621 34.0644 79.9773 33.3857 79.2986C33.3857 79.2986 33.3857 79.2986 33.2888 79.2017C32.6101 78.523 31.9314 77.6504 31.4467 76.6809C30.9619 75.6144 30.5741 74.4509 30.5741 73.0936C30.5741 72.9966 30.5741 72.9966 30.5741 72.8997C30.5741 72.124 30.671 71.3484 30.671 70.5728C30.671 69.991 30.671 69.4093 30.5741 68.9245C30.3802 68.052 30.0893 67.2763 29.5076 66.4037C28.9259 65.5312 27.9563 64.5616 26.502 63.5921C24.9508 62.6225 23.9812 61.4591 23.3025 60.1987C22.6239 58.9383 22.333 57.7748 22.333 56.6114C22.43 55.7388 22.7208 54.6723 23.1086 53.7997Z" fill="#1BA8FF"/>
<path d="M18.1786 93.206L21.2871 92.1086L20.1897 89.0001L17.0812 90.0975L18.1786 93.206Z" fill="#FFD530"/>
<path d="M39.0439 107.463L39.0439 104.167L35.7475 104.167L35.7475 107.463L39.0439 107.463Z" fill="#FF9F41"/>
<path fill-rule="evenodd" clip-rule="evenodd" d="M25.5839 112.169C25.674 112.169 25.674 112.26 25.5839 112.169C25.674 112.26 25.674 112.169 25.5839 112.169ZM27.5656 114.083C27.0252 114.083 26.5748 114.083 26.1244 113.992C24.8633 113.81 24.4129 113.263 24.3228 113.172C23.9625 112.716 23.8725 112.169 23.9625 111.622C24.1427 110.711 25.1335 109.8 26.1244 109.07C24.1427 109.07 22.8816 108.432 22.4312 107.247C22.2511 106.792 22.3411 106.336 22.5213 105.88C23.5121 104.057 28.1061 102.69 29.0069 102.417L29.4573 103.875C27.4756 104.604 24.503 105.789 24.0526 106.609C24.0526 106.701 24.0526 106.701 24.0526 106.701C24.2328 107.339 25.2236 107.612 26.845 107.521C28.3763 107.43 29.7275 107.065 29.8176 107.065L30.358 108.524C30.358 108.524 29.187 109.07 28.016 109.8C25.9442 111.076 25.5839 111.805 25.5839 111.987C25.5839 112.078 25.5839 112.078 25.5839 112.169C25.7641 112.26 27.1152 113.081 31.8894 111.896L32.2497 113.445C30.4481 113.81 28.8267 114.083 27.5656 114.083Z" fill="#FFB700"/>
<path fill-rule="evenodd" clip-rule="evenodd" d="M137.034 88.2365C137.019 88.1478 137.108 88.1317 137.034 88.2365C137.108 88.1317 137.019 88.1478 137.034 88.2365ZM138.567 85.9471C138.663 86.4791 138.743 86.9223 138.733 87.3817C138.777 88.6552 138.318 89.1953 138.245 89.3001C137.86 89.7354 137.338 89.9209 136.783 89.9291C135.854 89.9132 134.782 89.0994 133.889 88.2533C134.24 90.2037 133.835 91.5579 132.749 92.211C132.332 92.469 131.868 92.461 131.387 92.3644C129.418 91.7121 127.258 87.4328 126.83 86.5947L128.185 85.8932C129.254 87.7144 130.947 90.4302 131.834 90.7282C131.923 90.712 131.923 90.712 131.923 90.712C132.519 90.4218 132.613 89.3981 132.236 87.8185C131.875 86.3275 131.277 85.0623 131.261 84.9736L132.601 84.1834C132.601 84.1834 133.346 85.2391 134.271 86.2625C135.894 88.0756 136.676 88.301 136.855 88.2688C136.945 88.2526 136.945 88.2526 137.034 88.2365C137.092 88.043 137.66 86.568 135.649 82.0791L137.11 81.4501C137.788 83.1586 138.344 84.706 138.567 85.9471Z" fill="#D764DA"/>
<path d="M69.9953 93.4853C69.9953 93.4853 55.2583 83.596 46.5324 83.8869C37.9035 84.1778 43.5269 99.8843 67.7653 103.762" fill="#1BA8FF"/>
<path d="M87.9319 83.2083C87.9319 83.2083 99.9542 90.8676 115.273 93.6793C115.273 93.6793 114.885 96.2001 111.686 99.9813C105.384 107.447 101.118 105.508 97.1425 113.846C94.7187 119.081 84.2477 118.015 82.4055 122.862C82.4055 122.862 75.7157 118.403 71.5467 95.7153C69.1228 83.1113 87.9319 83.2083 87.9319 83.2083Z" fill="#FFD530"/>
<path d="M87.6407 132.752C90.3554 131.685 91.325 127.807 91.325 127.807C92.2945 125.092 88.6103 110.549 88.6103 110.549C88.6103 110.549 73.5824 116.754 72.7098 117.627C71.8373 118.403 82.3083 131.588 82.5991 131.879C84.0534 134.109 86.4773 133.237 87.6407 132.752Z" fill="#1BA8FF"/>
<path d="M90.8413 121.117C85.024 119.954 83.085 117.433 83.085 117.433C84.7332 117.433 89.8717 116.173 89.8717 116.173L90.8413 121.117Z" fill="#008AE8"/>
<path d="M65.5361 94.7457C67.5722 102.017 67.4752 110.84 73.9711 120.245C76.1041 123.347 104.802 109.774 104.802 109.774C103.154 92.7096 91.6167 85.1472 91.6167 85.1472L65.5361 94.7457Z" fill="#1BA8FF"/>
<path d="M88.2227 116.56C88.2227 116.56 91.4221 120.826 97.5302 120.051C103.057 119.469 110.813 114.04 110.522 111.422C110.037 107.641 104.608 107.931 104.608 107.931L103.444 103.762" fill="#1BA8FF"/>
<mask id="mask0" style="mask-type:alpha" maskUnits="userSpaceOnUse" x="65" y="85" width="40" height="36">
<path d="M65.5361 94.7457C67.5722 102.017 67.4752 110.84 73.9711 120.245C76.1041 123.347 104.802 109.774 104.802 109.774C103.154 92.7096 91.6167 85.1472 91.6167 85.1472L65.5361 94.7457Z" fill="#1BA8FF"/>
</mask>
<g mask="url(#mask0)">
<path d="M69.7052 115.688L69.3174 113.846C91.8107 108.804 103.93 100.175 104.124 100.078L105.287 101.629C104.899 101.823 98.5005 106.38 86.3813 110.743C81.6305 112.488 76.1042 114.33 69.7052 115.688Z" fill="white"/>
</g>
<path d="M84.8301 95.6182C84.927 95.6182 85.1209 95.6182 85.1209 95.5213C102.088 92.5157 115.467 79.0391 117.6 61.5874C115.467 78.9421 101.991 92.5157 85.1209 95.5213C84.927 95.6182 84.927 95.6182 84.8301 95.6182Z" fill="#1BA8FF"/>
<path d="M80.1768 16.7948C102.476 18.637 119.346 37.7369 117.795 59.6484C116.244 81.56 96.8529 97.9452 74.5535 96.2001C52.1572 94.4549 35.3842 75.258 36.9354 53.3464C38.4867 31.3379 57.8775 15.0497 80.1768 16.7948Z" fill="url(#paint0_linear)"/>
<path d="M92.1194 26.3527L92.1349 26.1813C92.3137 25.1609 93.4901 24.5762 94.4955 24.9264C103.848 28.5374 107.661 36.0529 108.862 39.0125C109.143 39.729 108.886 40.656 108.162 41.0224C107.25 41.5446 106.159 41.1867 105.808 40.291C102.915 34.0682 95.7285 29.4439 93.0007 28.0739C92.3382 27.7547 91.9717 27.0304 92.1194 26.3527Z" fill="url(#paint1_linear)"/>
<path d="M86.6876 24.306C86.8741 23.1999 87.8868 22.514 88.9077 22.6928C90.0143 22.8794 90.7004 23.8918 90.5216 24.9122C90.3351 26.0184 89.3224 26.7043 88.3015 26.5255C87.2807 26.3467 86.5945 25.3343 86.6876 24.306Z" fill="#BBF2FF"/>
<path d="M52.7383 87.8619C58.7494 92.6127 66.3118 95.6183 74.5529 96.2C96.8523 97.9451 116.243 81.5599 117.794 59.6484C118.861 44.8144 111.589 31.4348 99.7609 23.5815C110.523 31.4348 117.116 44.4266 116.049 58.4849C114.595 80.4935 95.1071 96.8787 72.8077 95.0365C65.3423 94.5518 58.5555 91.934 52.7383 87.8619Z" fill="#008AE8"/>
<path d="M44.2068 79.0393C48.1819 83.2083 53.5143 86.3108 59.5255 87.959C77.1711 92.5159 95.2045 81.9479 99.6644 64.3992C100.246 61.9754 100.828 58.9698 100.537 55.2856C89.872 53.8313 77.8498 51.5044 64.9549 48.014C55.8412 45.4932 47.6971 42.6816 40.2317 39.7729C38.3895 43.845 37.2261 48.4018 36.8383 53.2495C36.2566 62.751 38.9713 71.7677 44.2068 79.0393Z" fill="white"/>
<path d="M36.8379 53.2495C36.1593 62.654 38.874 71.7677 44.2064 79.0392C45.6607 80.4935 47.0181 81.7539 48.6663 82.9174C42.4613 75.355 38.874 65.3687 39.6496 54.8977C40.0374 49.953 41.2978 45.2993 43.3339 41.0333C42.2674 40.6455 41.3948 40.3546 40.3283 39.9668C38.4862 44.0389 37.3227 48.4987 36.8379 53.2495Z" fill="#BBF2FF"/>
<path d="M100.439 95.4243C111.977 83.6929 110.329 68.4712 103.445 72.3493C96.5613 76.2275 88.708 95.7152 88.708 95.7152" fill="#1BA8FF"/>
<path d="M104.512 71.8645C104.221 71.9615 103.833 72.1554 103.446 72.3493C96.5619 76.2274 89.1934 94.5517 89.1934 94.5517H90.8416C98.1131 77.6817 102.67 73.4158 104.512 71.8645Z" fill="#008AE8"/>
<path d="M115.079 64.3023L106.256 57.9033L103.444 79.3301C103.25 81.0753 105.189 82.3357 106.644 81.3662L124.677 69.5378L115.079 64.3023Z" fill="#FFB700"/>
<path d="M125.433 68.6103C126.947 66.21 123.953 61.601 118.744 58.3158C113.536 55.0306 108.087 54.3133 106.572 56.7136C105.058 59.114 108.053 63.723 113.261 67.0082C118.47 70.2934 123.919 71.0107 125.433 68.6103Z" fill="#3F50E3"/>
<path d="M118.463 24.8421L115.675 23.0835L113.916 25.8716L116.704 27.6303L118.463 24.8421Z" fill="#D764DA"/>
<path d="M106.15 46.372L102.876 45.9883L102.492 49.2623L105.766 49.646L106.15 46.372Z" fill="#FFD530"/>
<path d="M141.776 72.9653L141.048 69.7502L137.833 70.4784L138.561 73.6935L141.776 72.9653Z" fill="#FFD530"/>
<path d="M112.849 64.3993C112.849 63.7206 112.849 63.0419 112.752 62.3632C112.655 61.8785 112.461 61.4907 112.268 61.0059C111.977 60.4242 111.589 59.7455 111.298 59.1638C111.007 58.582 110.813 57.9034 110.619 57.3216C110.425 56.546 110.425 55.6734 110.619 54.6069C110.813 53.5404 111.298 52.377 112.268 50.9227C113.043 49.6623 113.528 48.4988 113.722 47.4323C113.916 46.2689 113.916 45.2024 113.722 44.2329C113.431 42.7785 112.655 41.6151 111.88 40.7425C111.492 40.2577 111.007 39.8699 110.619 39.5791C110.135 39.2882 109.747 38.9973 109.262 38.9004L108.583 40.8395C108.777 40.9364 109.068 41.0334 109.359 41.2273C109.844 41.5181 110.328 42.0029 110.716 42.5846C111.104 43.1664 111.492 43.845 111.589 44.6207C111.783 45.2993 111.783 46.075 111.589 46.9476C111.395 47.8202 111.104 48.6927 110.425 49.7592C109.359 51.4074 108.777 52.8618 108.486 54.2191C108.195 55.5765 108.292 56.7399 108.486 57.8064C108.68 58.679 108.971 59.4546 109.262 60.1333C109.553 60.812 109.941 61.3937 110.231 61.9754C110.328 62.2663 110.425 62.5571 110.522 62.848C110.619 63.3328 110.619 63.8175 110.619 64.3023C110.619 64.5932 110.522 64.884 110.522 65.0779C111.104 65.5627 111.686 65.9505 112.268 66.4353C112.268 66.3383 112.364 66.2414 112.364 66.1444C112.655 65.6597 112.849 65.0779 112.849 64.3993Z" fill="#D764DA"/>
<path d="M136.602 52.7648C135.633 52.5709 134.663 52.5709 133.5 52.8617C132.336 53.1526 131.173 53.6374 130.107 54.6069C129.04 55.5764 128.167 56.8368 127.489 58.582C127.101 59.6485 126.616 60.618 126.131 61.2967C125.453 62.3632 124.677 63.0419 123.901 63.4297C123.126 63.9145 122.35 64.1084 121.478 64.3023C120.799 64.4962 120.023 64.5932 119.345 64.6901C119.248 64.6901 119.248 64.6901 119.151 64.6901C118.278 64.884 117.503 65.2718 116.921 65.6596C116.727 65.8536 116.436 65.9505 116.242 66.1444C115.757 66.92 115.273 67.5018 114.885 67.8896C115.466 68.1804 116.048 68.4713 116.63 68.6652C116.727 68.4713 116.921 68.2774 117.018 68.1804C117.309 67.7926 117.696 67.5018 118.084 67.2109C118.472 66.92 118.957 66.7261 119.442 66.6292H119.539C120.217 66.5322 120.993 66.4353 121.768 66.2414C122.447 66.1444 123.126 65.9505 123.805 65.6596C124.774 65.1749 125.841 64.5932 126.81 63.5267C127.78 62.4602 128.555 61.1028 129.234 59.2607C129.816 57.8064 130.494 56.8368 131.27 56.1582C132.046 55.4795 132.918 55.0917 133.694 54.8978C134.469 54.7039 135.245 54.7039 135.924 54.8008C136.602 54.8978 137.184 55.1886 137.475 55.3825L138.638 53.6374C138.348 53.2495 137.475 52.9587 136.602 52.7648Z" fill="#FF9F41"/>
<path d="M120.897 38.9004C120.315 38.1248 119.733 37.5431 119.055 37.1553L118.085 38.9004C118.376 39.0943 118.861 39.4822 119.345 40.0639C119.733 40.6456 120.121 41.3243 120.315 42.1969C120.509 43.0695 120.509 43.942 120.218 44.9116C119.927 45.8811 119.345 46.9476 118.279 48.1111C117.406 49.0806 116.728 49.9532 116.146 50.8258C115.37 52.1831 114.982 53.3466 114.886 54.51C114.789 55.6735 114.886 56.7399 115.176 57.7095C115.37 58.5821 115.564 59.2607 115.758 60.0364V60.1333C115.952 61.1029 115.952 62.0724 115.758 62.848C115.467 64.1084 114.789 65.2719 114.11 66.0475C113.819 66.4353 113.528 66.7262 113.334 66.9201C113.334 66.9201 113.334 66.9201 113.237 67.0171C113.237 67.0171 113.237 67.0171 113.334 67.0171C113.916 67.4049 114.401 67.6957 114.982 67.9866C114.982 67.9866 115.079 67.9866 115.079 68.0835C115.467 67.6957 115.952 67.0171 116.437 66.3384C116.437 66.3384 116.437 66.3384 116.437 66.2414C116.922 65.4658 117.406 64.4963 117.697 63.3328C117.988 62.2663 118.085 61.0059 117.794 59.6486C117.794 59.5516 117.794 59.5516 117.794 59.4547C117.6 58.679 117.406 57.9034 117.212 57.2247C117.115 56.643 117.019 56.1582 117.019 55.5765C117.019 54.7039 117.115 53.8313 117.503 52.8618C117.891 51.8923 118.667 50.7288 119.83 49.4684C121.091 48.1111 121.866 46.7537 122.254 45.4933C122.642 44.136 122.642 42.8755 122.351 41.7121C121.963 40.6456 121.478 39.6761 120.897 38.9004Z" fill="#1BA8FF"/>
<defs>
<linearGradient id="paint0_linear" x1="61.0558" y1="93.1259" x2="93.7742" y2="19.9217" gradientUnits="userSpaceOnUse">
<stop stop-color="#1BA8FF"/>
<stop offset="0.9986" stop-color="#4ACAFF"/>
</linearGradient>
<linearGradient id="paint1_linear" x1="108.567" y1="40.5901" x2="92.4193" y2="25.4998" gradientUnits="userSpaceOnUse">
<stop stop-color="#E1FFFC" stop-opacity="0"/>
<stop offset="1" stop-color="#BBF2FF"/>
</linearGradient>
</defs>
</svg>
