<svg width="18" height="18" viewBox="0 0 18 18" fill="none" xmlns="http://www.w3.org/2000/svg">
<path fill-rule="evenodd" clip-rule="evenodd" d="M5.64775 1.5C5.64775 1.15482 5.92757 0.875 6.27275 0.875H11.7273C12.0725 0.875 12.3523 1.15482 12.3523 1.5V3.60225H16.5C16.8452 3.60225 17.125 3.88208 17.125 4.22725C17.125 4.57243 16.8452 4.85225 16.5 4.85225H11.7321C11.7305 4.85227 11.7289 4.85227 11.7273 4.85227C11.7257 4.85227 11.7241 4.85227 11.7225 4.85225H6.27758C6.27597 4.85227 6.27436 4.85227 6.27275 4.85227C6.27113 4.85227 6.26952 4.85227 6.26791 4.85225H1.5C1.15482 4.85225 0.875 4.57243 0.875 4.22725C0.875 3.88208 1.15482 3.60225 1.5 3.60225H5.64775V1.5ZM6.89775 3.60225H11.1023V2.125H6.89775V3.60225ZM3.50098 6.33115C3.84528 6.30656 4.14432 6.56574 4.1689 6.91004L4.76004 15.1887C4.7733 15.375 4.8567 15.5496 4.99342 15.6769C5.13013 15.8042 5.31002 15.875 5.49685 15.875H12.5032C12.6901 15.875 12.8699 15.8042 13.0067 15.6769C13.1434 15.5496 13.2268 15.3752 13.24 15.1888L13.8312 6.91004C13.8558 6.56574 14.1548 6.30656 14.4991 6.33115C14.8434 6.35573 15.1026 6.65477 15.078 6.99907L14.4869 15.2776C14.4869 15.2776 14.4869 15.2775 14.4869 15.2776C14.4511 15.7792 14.2266 16.2489 13.8586 16.5916C13.4905 16.9344 13.0062 17.125 12.5032 17.125H5.49687C4.99388 17.125 4.50958 16.9344 4.1415 16.5916C3.77346 16.2489 3.54896 15.7794 3.51322 15.2777C3.51321 15.2777 3.51322 15.2778 3.51322 15.2777L2.92208 6.99907C2.89749 6.65477 3.15668 6.35573 3.50098 6.33115ZM7.33333 7.54167C7.67851 7.54167 7.95833 7.82149 7.95833 8.16667V12.3333C7.95833 12.6785 7.67851 12.9583 7.33333 12.9583C6.98816 12.9583 6.70833 12.6785 6.70833 12.3333V8.16667C6.70833 7.82149 6.98816 7.54167 7.33333 7.54167ZM10.6667 7.54167C11.0118 7.54167 11.2917 7.82149 11.2917 8.16667V12.3333C11.2917 12.6785 11.0118 12.9583 10.6667 12.9583C10.3215 12.9583 10.0417 12.6785 10.0417 12.3333V8.16667C10.0417 7.82149 10.3215 7.54167 10.6667 7.54167Z" fill="#787878"/>
</svg>
